<svg width="32" height="32" viewBox="0 0 32 32" fill="none" xmlns="http://www.w3.org/2000/svg">
<path d="M17.0002 28H13.9813L3.49072 21.0286L12.6731 4L13.9813 21.0286H17.0002V28Z" fill="#EF5908"/>
<path d="M17.0002 28H13.9813L3.49072 21.0286L12.6731 4L13.9813 21.0286H17.0002V28Z" fill="#EF5908"/>
<path d="M17.0002 28H13.9813L3.49072 21.0286L12.6731 4L13.9813 21.0286H17.0002V28Z" fill="#EF5908"/>
<path d="M17.0002 28H13.9813L3.49072 21.0286L12.6731 4L13.9813 21.0286H17.0002V28Z" stroke="#EF5908"/>
<path d="M14.9998 28H18.0187L28.5093 21.0286L19.3269 4L18.0187 21.0286H14.9998V28Z" fill="#EF5908"/>
<path d="M14.9998 28H18.0187L28.5093 21.0286L19.3269 4L18.0187 21.0286H14.9998V28Z" fill="#EF5908"/>
<path d="M14.9998 28H18.0187L28.5093 21.0286L19.3269 4L18.0187 21.0286H14.9998V28Z" fill="#EF5908"/>
<path d="M14.9998 28H18.0187L28.5093 21.0286L19.3269 4L18.0187 21.0286H14.9998V28Z" stroke="#EF5908"/>
</svg>
