<svg width="202" height="203" viewBox="0 0 202 203" fill="none" xmlns="http://www.w3.org/2000/svg">
<path d="M113.579 202H88.4214L1 143.905L77.5199 2L88.4214 143.905H113.579V202Z" fill="#402DCC"/>
<path d="M113.579 202H88.4214L1 143.905L77.5199 2L88.4214 143.905H113.579V202Z" fill="#402DCC"/>
<path d="M113.579 202H88.4214L1 143.905L77.5199 2L88.4214 143.905H113.579V202Z" fill="#402DCC"/>
<path d="M113.579 202H88.4214L1 143.905L77.5199 2L88.4214 143.905H113.579V202Z" stroke="#402DCC"/>
<path d="M88.4214 202H113.579L201 143.905L124.48 2L113.579 143.905H88.4214V202Z" fill="#402DCC"/>
<path d="M88.4214 202H113.579L201 143.905L124.48 2L113.579 143.905H88.4214V202Z" fill="#402DCC"/>
<path d="M88.4214 202H113.579L201 143.905L124.48 2L113.579 143.905H88.4214V202Z" fill="#402DCC"/>
<path d="M88.4214 202H113.579L201 143.905L124.48 2L113.579 143.905H88.4214V202Z" stroke="#402DCC"/>
</svg>
